<?xml version="1.0" encoding="UTF-8"?><svg id="Layer_2" xmlns="http://www.w3.org/2000/svg" viewBox="0 0 75.43 92.89"><g id="Layer_1-2"><g id="cat10"><path d="M68.27,57.03c0-4.51-.96-8.79-2.67-12.67,.66-.81,1.31-1.65,1.96-2.53,6.14-8.34,9.36-16.39,7.2-17.99-2.14-1.58-8.74,3.74-14.82,11.9-2.17-2.35-4.7-4.36-7.5-5.96,1.41-2.55,2.22-5.47,2.22-8.59,0-2.82-.67-5.47-1.84-7.84L57.38,0l-18.88,3.52c-.53-.05-1.06-.08-1.59-.08-1.25,0-2.47,.13-3.65,.38L15.26,1.18l5.17,13.41c-.82,2.04-1.28,4.26-1.28,6.6,0,3.12,.81,6.05,2.22,8.59-2.97,1.69-5.63,3.86-7.89,6.39C8.93,27.23,3.43,20.98,1.07,22.16c-2.41,1.2-.63,9.69,3.99,18.96,.83,1.66,1.69,3.23,2.56,4.68-1.34,3.49-2.08,7.27-2.08,11.23,0,7.28,2.49,13.98,6.65,19.3-5.33,7.7-7.99,14.79-5.97,16.27,1.94,1.43,7.51-2.78,13.06-9.63,5.02,3.42,11.09,5.42,17.63,5.42,7.07,0,13.59-2.34,18.83-6.28,5.88,7.29,11.94,11.84,13.93,10.32,2.1-1.6-1.07-9.32-7.1-17.38,3.59-5.1,5.7-11.31,5.7-18.02Z" fill="#231f20"/><path d="M22.87,19.83s-.21-8.16,7.23-3.85c.26,.15,2.9,1.4,2.79,2.14-.09,.63-2.13,.55-2.81,.52-.62-.35-2.37-1.25-3.6-.5-.69,.42-.99,1.23-1.35,2.21-.66,1.79-.42,2.92-1.21,3.31-.31,.15-.76,.18-1.07-.05-.62-.47-.66-1.97,.03-3.76Z" fill="#fff"/><path d="M43.12,16.59s6.3-5.2,7.49,3.32c.04,.29,.68,3.14,.03,3.51-.56,.32-1.75-1.33-2.14-1.89-.1-.7-.48-2.64-1.82-3.14-.76-.29-1.58-.02-2.57,.3-1.81,.58-2.56,1.47-3.35,1.08-.31-.15-.61-.49-.62-.88-.01-.77,1.14-1.73,2.98-2.3Z" fill="#fff"/></g></g></svg>