<?xml version="1.0" encoding="UTF-8"?><svg id="Layer_2" xmlns="http://www.w3.org/2000/svg" viewBox="0 0 58.42 132.94"><g id="Layer_1-2"><g id="cat2"><path d="M57.79,118.98l-18.14-50.02c4.87-3.53,8.07-9.45,8.07-16.17L46.73,0l-12.33,34c-1.65-.51-3.38-.79-5.19-.79-1.32,0-2.61,.15-3.86,.43L16.86,.35l-5.61,47.79c-.34,1.49-.54,3.04-.54,4.64,0,6.72,3.2,12.64,8.07,16.17L.63,118.98c-2.46,6.79,2.57,13.96,9.79,13.96H48c7.22,0,12.25-7.17,9.79-13.96Z" fill="#231f20"/><circle cx="38.29" cy="48.52" r="5.92" fill="#fff"/><polygon points="38.03 49.42 37.02 42.04 39.64 42.18 38.03 49.42" fill="#231f20"/><circle cx="20.04" cy="48.43" r="5.92" fill="#fff"/><polygon points="19.78 49.32 18.77 41.95 21.39 42.09 19.78 49.32" fill="#231f20"/></g></g></svg>