<?xml version="1.0" encoding="UTF-8"?><svg id="Layer_2" xmlns="http://www.w3.org/2000/svg" viewBox="0 0 111.19 102.89"><g id="Layer_1-2"><g id="cat3"><polygon points="111.19 3.94 106.53 2.02 99.94 8.68 98.36 12.52 85.54 9.19 80.71 12.02 77.11 5.74 69.7 0 65.33 2.51 66.55 11.8 70.56 18.77 66.65 33.81 36.33 33.81 14.67 46.98 14.67 47.77 9.4 52.18 1.97 65.04 .05 76.07 .63 76.4 0 77.78 14.31 89.46 37.32 99.86 55.55 102.89 58.31 96.77 44 85.1 20.99 74.7 11.55 73.13 13.36 71.62 16.26 66.58 36.33 78.79 66.96 78.79 88.62 65.62 88.62 52.64 91.7 53.44 106.45 44.78 110.75 28.23 107.4 22.53 111.19 13.31 111.19 3.94" fill="#231f20"/><circle cx="79.73" cy="28.96" r="4.85" fill="#fff"/><polygon points="79.58 32.02 76.44 19.91 83.59 20.28 79.58 32.02" fill="#231f20"/><circle cx="98.38" cy="28.96" r="4.85" fill="#fff"/><polygon points="98.23 32.02 95.09 19.91 102.24 20.28 98.23 32.02" fill="#231f20"/></g></g></svg>