<?xml version="1.0" encoding="UTF-8"?><svg id="Layer_2" xmlns="http://www.w3.org/2000/svg" viewBox="0 0 55.49 95.33"><g id="Layer_1-2"><g id="cat5"><path d="M36.87,48.34c6.54-3.93,10.91-11.07,10.91-19.23,0-2.71-.48-5.3-1.36-7.7l9.08-9.7-22.43-3.65c-2.45-.9-5.09-1.4-7.85-1.4s-5.65,.55-8.19,1.53L0,0,3.29,23.78c-.42,1.71-.65,3.49-.65,5.33,0,9.19,5.55,17.08,13.49,20.56-2.16,1.78-4.53,4.9-6.42,8.69-3.25,6.51-3.83,12.49-1.3,13.36,1.77,.61,4.61-1.46,7.26-4.99,.49,2.66,1.27,5.05,2.27,7.04-.89,2.23-1.56,5.41-1.78,8.97-.42,6.86,.98,12.49,3.14,12.58,2.15,.09,4.24-5.39,4.66-12.25,.07-1.19,.09-2.34,.06-3.43,.45,.12,.92,.18,1.39,.18,.58,0,1.15-.09,1.7-.27,.11,.85,.26,1.73,.44,2.63,1.37,6.75,4.27,11.98,6.47,11.67,2.2-.31,2.87-6.03,1.5-12.79-.6-2.94-1.48-5.59-2.48-7.62,1.63-3.4,2.64-7.89,2.67-12.83,3.95,5.54,9.1,9.04,11.6,7.84,2.55-1.22,1.4-6.86-2.59-12.59-2.43-3.5-5.35-6.21-7.84-7.53Z" fill="#231f20"/><ellipse cx="15" cy="27.88" rx="8.45" ry="2.07" fill="#fff"/><polygon points="14.59 29.34 13.12 25.4 16.87 25.48 14.59 29.34" fill="#231f20"/><ellipse cx="36.47" cy="28.09" rx="8.45" ry="2.07" fill="#fff"/><polygon points="36.07 29.54 34.6 25.61 38.34 25.69 36.07 29.54" fill="#231f20"/></g></g></svg>