<?xml version="1.0" encoding="UTF-8"?><svg id="Layer_2" xmlns="http://www.w3.org/2000/svg" viewBox="0 0 122.54 124.71"><g id="Layer_1-2"><g id="svgmarketlogo"><path d="M122.54,0l-47.26,27.29c-4.5-.85-9.18-1.31-14.01-1.31-5.63,0-11.08,.63-16.27,1.77L0,1.77V75.34c0,27.26,27.43,49.37,61.27,49.37s61.27-22.1,61.27-49.37c0-.6-.03-1.2-.06-1.8l.06,.03V0Z" fill="#231f20"/><circle cx="32.04" cy="67.93" r="16.98" fill="#fff"/><circle cx="91.05" cy="67.93" r="16.98" fill="#fff"/><polygon points="32.04 80 21.13 47.44 42.95 47.44 32.04 80" fill="#231f20"/><polygon points="91.05 81.09 80.14 48.52 101.96 48.52 91.05 81.09" fill="#231f20"/><polygon points="61.54 90.94 50.12 78.87 72.97 78.87 61.54 90.94" fill="#eb509a"/></g></g></svg>