<?xml version="1.0" encoding="UTF-8"?><svg id="Layer_2" xmlns="http://www.w3.org/2000/svg" viewBox="0 0 89.19 56.53"><g id="Layer_1-2"><g id="cat1"><path d="M68.58,15.32h-29.71L32.77,0l-6.1,15.32h-2.69L17.88,0l-7.09,17.8C4.36,21.29,0,28.1,0,35.92H0c0,11.38,9.23,20.61,20.61,20.61h47.97c11.38,0,20.61-9.23,20.61-20.61h0c0-11.38-9.23-20.61-20.61-20.61Z" fill="#231f20"/><ellipse cx="12.56" cy="30.15" rx="5.27" ry="3.37" fill="#fff"/><ellipse cx="35.03" cy="30.15" rx="6.22" ry="3.37" fill="#fff"/><polygon points="12.37 32.5 11.29 26.09 14.04 26.22 12.37 32.5" fill="#231f20"/><polygon points="34.73 32.51 33.65 26.11 36.4 26.23 34.73 32.51" fill="#231f20"/></g></g></svg>