<?xml version="1.0" encoding="UTF-8"?><svg id="Layer_2" xmlns="http://www.w3.org/2000/svg" viewBox="0 0 113.86 132.94"><g id="Layer_1-2"><g id="cat2"><path d="M57.15,117.22l-17.51-48.27c4.87-3.53,8.07-9.45,8.07-16.17L46.73,0l-12.33,34c-1.65-.51-3.38-.79-5.19-.79-1.32,0-2.61,.15-3.86,.43L16.86,.35l-5.61,47.79c-.34,1.49-.54,3.04-.54,4.64,0,6.72,3.2,12.64,8.07,16.17L.63,118.98c-2.46,6.79,2.57,13.96,9.79,13.96H48c5.59,0,9.85-4.3,10.35-9.39,11.25,1.54,37.32,4.28,52.34-.82,16.75-5.69-37.64-5.64-53.54-5.51Z" fill="#231f20"/><circle cx="38.29" cy="48.52" r="5.92" fill="#fff"/><polygon points="38.03 49.42 37.02 42.04 39.64 42.19 38.03 49.42" fill="#231f20"/><circle cx="20.04" cy="48.43" r="5.92" fill="#fff"/><polygon points="19.78 49.32 18.77 41.95 21.39 42.09 19.78 49.32" fill="#231f20"/></g></g></svg>