<?xml version="1.0" encoding="UTF-8"?><svg id="Layer_2" xmlns="http://www.w3.org/2000/svg" viewBox="0 0 104.1 105.66"><g id="Layer_1-2"><g id="cat4"><path d="M104.1,30.19l-7.54-4.28,4.02-15.8-15.43,9.05V0l-16.98,9.81-5.56-3.16,.24,31.76-.17-.28-31.04,54.57c-4.82-14.57-9.64-29.13-14.46-43.7-5.72,.72-11.45,1.43-17.17,2.15,8.08,18.17,16.17,36.34,24.25,54.51l77.69-.5-32.13-54.83,34.28-20.14Z" fill="#231f20"/><polygon points="67.26 23.97 76.55 23.52 72.3 31.78 67.26 23.97" fill="#fff"/><polygon points="86.49 35.82 81.46 28.01 90.74 27.55 86.49 35.82" fill="#fff"/><polygon points="71.93 28.68 73.76 21.25 70.1 21.25 71.93 28.68" fill="#231f20"/><polygon points="86.7 32.75 87.98 25.21 84.33 25.48 86.7 32.75" fill="#231f20"/></g></g></svg>