<?xml version="1.0" encoding="UTF-8"?><svg id="Layer_2" xmlns="http://www.w3.org/2000/svg" viewBox="0 0 70.96 95.33"><g id="Layer_1-2"><g id="cat5"><path d="M47.15,48.34c8.36-3.93,13.95-11.07,13.95-19.23,0-2.71-.62-5.3-1.74-7.7l11.61-9.7-28.68-3.65c-3.13-.9-6.51-1.4-10.04-1.4s-7.23,.55-10.48,1.53L0,0,4.2,23.78c-.54,1.71-.83,3.49-.83,5.33,0,9.19,7.1,17.08,17.25,20.56-2.76,1.78-5.79,4.9-8.21,8.69-4.15,6.51-4.9,12.49-1.66,13.36,2.27,.61,5.89-1.46,9.28-4.99,.62,2.66,1.62,5.05,2.9,7.04-1.14,2.23-2,5.41-2.27,8.97-.54,6.86,1.26,12.49,4.01,12.58,2.75,.09,5.42-5.39,5.96-12.25,.09-1.19,.11-2.34,.07-3.43,.58,.12,1.17,.18,1.77,.18,.74,0,1.46-.09,2.17-.27,.14,.85,.33,1.73,.56,2.63,1.75,6.75,5.46,11.98,8.27,11.67,2.81-.31,3.67-6.03,1.91-12.79-.76-2.94-1.9-5.59-3.17-7.62,2.09-3.4,3.37-7.89,3.41-12.83,5.06,5.54,11.63,9.04,14.84,7.84,3.27-1.22,1.79-6.86-3.31-12.59-3.11-3.5-6.84-6.21-10.02-7.53Z" fill="#231f20"/><ellipse cx="19.17" cy="27.88" rx="10.81" ry="2.07" fill="#fff"/><polygon points="18.66 29.34 16.78 25.4 21.57 25.48 18.66 29.34" fill="#231f20"/><ellipse cx="46.64" cy="28.09" rx="10.81" ry="2.07" fill="#fff"/><polygon points="46.12 29.54 44.25 25.61 49.03 25.69 46.12 29.54" fill="#231f20"/></g></g></svg>