<?xml version="1.0" encoding="UTF-8"?><svg id="Layer_2" xmlns="http://www.w3.org/2000/svg" viewBox="0 0 80.65 118.5"><g id="Layer_1-2"><g id="cat6"><polygon points="73.37 55.02 73.37 78.83 67.12 78.83 67.12 94.05 62.83 94.05 62.83 104.2 45.66 104.2 45.66 31.22 45.66 27.22 45.66 14.44 42.54 14.44 42.54 5.8 35.51 5.8 35.51 14.44 31.61 14.44 31.61 27.22 16.39 27.22 16.39 8.74 11.71 8.74 11.71 0 5.46 0 5.46 8.74 2.34 8.74 2.34 27.22 0 27.22 0 118.5 45.66 118.5 45.66 115.9 70.63 115.9 70.63 110.44 73.37 110.44 73.37 94.05 73.37 88.79 80.65 88.79 80.65 79.61 80.65 78.84 80.65 55.02 73.37 55.02" fill="#231f20"/><rect x="5.46" y="42.54" width="17.37" height="7.86" fill="#fff"/><rect x="22.83" y="55.02" width="17.76" height="10.15" fill="#fff"/><rect x="27.62" y="54.39" width="7.97" height="7.97" fill="#231f20"/><rect x="11.71" y="34.73" width="6.63" height="14.05" fill="#231f20"/></g></g></svg>