<?xml version="1.0" encoding="UTF-8"?><svg id="Layer_2" xmlns="http://www.w3.org/2000/svg" viewBox="0 0 109.38 67.24"><g id="Layer_1-2"><g id="cat7"><path d="M95.72,20.04l1.19-10.47c-3.57,2-7.15,4-10.72,6-3.15-2.76-6.3-5.52-9.45-8.28l1.65,13.15c.08,2.76,.16,5.52,.24,8.27-.11,3.26-.22,6.52-.32,9.78-.56,2.62-1.13,5.23-1.69,7.85-3.87-.83-7.74-1.67-11.61-2.5-3.38-2.73-6.76-5.46-10.15-8.2-1.94-.37-3.87-.75-5.81-1.12l8.44-2.05-15.26-12.51L44.35,0,27.19,10.98,8.83,3.44l4.65,19.3L0,38.02l16.15,.76c-1.54,6.63-3.08,13.25-4.61,19.88,8.46,2.34,16.91,4.68,25.37,7.02l23.41,1.56c6.76-.78,13.53-1.56,20.29-2.34,.81-3.17,1.62-6.34,2.43-9.5,0,0,.01,0,.02,0l3.37-8.92,2.14-8.52,20.81-20.69-13.67,2.77Z" fill="#231f20"/><circle cx="22.08" cy="27.98" r="6.67" fill="#fff"/><circle cx="32.41" cy="27.98" r="6.67" fill="#fff"/><ellipse cx="20.32" cy="24.96" rx="1.76" ry="6.38" fill="#231f20"/><ellipse cx="33.84" cy="25.68" rx="3.18" ry="7.1" fill="#231f20"/></g></g></svg>