<?xml version="1.0" encoding="UTF-8"?><svg id="Layer_2" xmlns="http://www.w3.org/2000/svg" viewBox="0 0 88.49 88.67"><g id="Layer_1-2"><g id="cat8"><path d="M71.02,12.55c-7.02-16.39-5.46,0,3.9,30.78,9.37,30.78-17.28,37.15-17.28,37.15,7.74-7.07,9.97-16.81,9.97-16.81,0,0-1.51-9.39-14.82-13.79,2.98-3.18,4.72-7.02,4.72-11.15,0-3.81-1.48-7.37-4.05-10.4l-.36-19.08L44.22,.27l-4.65,19.79c-2.98-.8-6.21-1.24-9.57-1.24-4.27,0-8.31,.7-11.91,1.96L4.29,0,0,10.93l3.86,21.59c-.89,1.96-1.38,4.05-1.38,6.22,0,7.83,6.26,14.6,15.35,17.85-4.14,2.32-10.03,6.76-10.03,13.33,0,10.15,5.46,14.05,9.37,14.83,3.9,.78,14.44,6.63,30.44,1.56,1.5-.48,2.9-1.06,4.19-1.73,3.01,1.45,6.49,2.83,10.25,3.78,11.89,3,21.85-16.49,25.76-28.31,3.9-11.83-9.76-31.1-16.78-47.49Z" fill="#231f20"/><circle cx="20.17" cy="38.59" r="9.26" fill="#fff"/><circle cx="20.17" cy="38.59" r="7.01" fill="#231f20"/><circle cx="40.98" cy="37.66" r="9.26" fill="#fff"/><circle cx="40.98" cy="37.66" r="7.01" fill="#231f20"/></g></g></svg>