<?xml version="1.0" encoding="UTF-8"?><svg id="Layer_2" xmlns="http://www.w3.org/2000/svg" viewBox="0 0 75.13 106.94"><g id="Layer_1-2"><g id="cat9"><path d="M75.12,66.49s-8.98-36.29-7.8,0c.92,28.5-18.86,29.81-27.4,29.05V57.57c0-3.32-1.59-6.27-4.05-8.13,5.69-4.11,9.4-10.8,9.4-18.36,0-3.48-.79-6.78-2.19-9.72L41.8,0,24.7,8.55c-.68-.06-1.37-.1-2.07-.1-1.17,0-2.32,.09-3.45,.26L2.62,.43,1.22,23.76c-.79,2.3-1.22,4.76-1.22,7.33,0,7.61,3.76,14.34,9.52,18.44-2.4,1.87-3.94,4.78-3.94,8.05v49.36H39.92v-4.13c3.18,.08,8.09-.18,15.69-1.2,20.29-2.73,19.52-35.12,19.52-35.12Z" fill="#231f20"/><ellipse cx="13.7" cy="30.15" rx="5.76" ry="8.72" fill="#fff"/><ellipse cx="30.84" cy="29.69" rx="8.1" ry="5.53" fill="#fff"/><polygon points="13.7 37.16 8.46 17.02 18.94 17.02 13.7 37.16" fill="#231f20"/><polygon points="30.84 33.25 25.6 21.43 36.08 21.43 30.84 33.25" fill="#231f20"/></g></g></svg>